<svg width="35" height="35" viewBox="0 0 35 35" fill="none" xmlns="http://www.w3.org/2000/svg">
    <path fill-rule="evenodd" clip-rule="evenodd"
        d="M0.753643 0.743555C0.155646 1.33363 0 1.52689 0 1.67954C0 1.79894 0.403665 2.5909 1.06313 3.76514L2.12626 5.65831L3.33774 6.06333L4.54922 6.46835L8.73235 10.6562L12.9154 14.8441L13.4205 14.8248C13.8091 14.8099 13.9842 14.836 14.1803 14.9378L14.4351 15.0701L15.0306 14.4712L15.6259 13.8723L11.0074 9.24847L6.38884 4.62462L6.00532 3.42535C5.71688 2.5233 5.5836 2.20104 5.46754 2.12538C5.01192 1.82815 1.69078 0 1.60647 0C1.55187 0 1.16807 0.334642 0.753643 0.743555ZM19.2005 0.584023C17.8409 0.843489 16.7174 1.33898 15.6966 2.1292C15.006 2.66371 14.7937 2.89619 14.7937 3.11741C14.7937 3.44058 14.9346 3.50122 15.7191 3.51575C16.2854 3.52618 16.5418 3.56763 17.0093 3.72424C18.3752 4.18198 19.6479 5.38132 20.2235 6.75313C20.5621 7.56003 20.6121 8.63733 20.3296 9.04116C20.1278 9.32963 20.1817 9.50689 20.6068 9.95315L21.0025 10.3686L17.7449 13.631L14.4872 16.8935L14.0486 16.4718C13.6687 16.1065 13.5847 16.0561 13.4205 16.0951C13.2914 16.1259 11.2347 18.1405 6.97059 22.4134L0.710234 28.6865L0.42971 29.2777C-0.310806 30.8381 -0.00583422 32.4486 1.251 33.6137C2.13619 34.4343 3.35809 34.7437 4.57749 34.4558C5.51893 34.2337 5.64701 34.1293 8.66318 31.1284C10.5691 29.2321 11.4781 28.2803 11.5221 28.1349C11.5577 28.0175 11.6066 27.754 11.6309 27.5491C11.7873 26.2283 12.9819 24.5584 14.3422 23.7591C14.9068 23.4273 15.8286 23.0887 16.169 23.0879C16.6411 23.0869 16.8413 22.958 17.6616 22.1263C18.6583 21.1159 18.6595 21.1107 18.0258 20.4534L17.577 19.9879L20.8356 16.7256L24.0943 13.4633L24.5428 13.8946C24.8355 14.1761 25.0486 14.3259 25.1562 14.3259C25.2621 14.3259 25.443 14.202 25.6615 13.9799C26.2136 13.4186 26.632 13.293 27.0662 13.5581C27.4442 13.7889 27.607 14.2726 27.4258 14.626C27.3829 14.7096 27.2696 14.8619 27.174 14.9646C26.8515 15.311 26.9137 15.4368 27.8942 16.4207C28.8694 17.3993 29.1274 17.5561 29.7578 17.5529C30.4711 17.5493 30.5137 17.5174 32.6624 15.3784C33.9548 14.0919 34.7073 13.2903 34.7922 13.1098C34.9992 12.6694 35.0311 12.2972 34.9007 11.8423C34.7943 11.4712 34.7106 11.3648 33.8261 10.4765C32.7666 9.41266 32.77 9.41419 32.3215 9.80572C31.8864 10.1856 31.2589 10.1144 30.9782 9.65328C30.7625 9.29903 30.7943 8.96877 31.0806 8.59331C31.2143 8.41792 31.3236 8.2038 31.3236 8.11742C31.3236 8.00323 30.5335 7.17129 28.424 5.06469C25.3042 1.94909 24.9667 1.6657 23.7434 1.13487C22.7509 0.704263 21.9841 0.54487 20.7667 0.51601C20.0526 0.499181 19.5253 0.52206 19.2005 0.584023ZM20.8122 18.6265L19.4339 20.0081L19.5947 20.3138C19.7183 20.549 19.7555 20.7319 19.7555 21.1063C19.7555 21.6781 19.6142 21.999 19.1751 22.4244C19.0191 22.5756 18.8914 22.721 18.8914 22.7475C18.8914 22.774 19.0552 22.9006 19.2554 23.0289C20.8145 24.0283 21.9189 25.6846 22.1519 27.3727L22.2276 27.9216L25.3624 31.0619C28.68 34.3853 28.883 34.5588 29.7957 34.8495C30.4254 35.0502 31.5274 35.0502 32.1571 34.8495C33.4723 34.4305 34.5519 33.3046 34.9023 31.9867C35.0346 31.4889 35.0321 30.4556 34.8975 29.938C34.625 28.8905 34.622 28.8868 31.1638 25.4077L27.9739 22.1983L27.5825 22.1516C25.3608 21.8863 23.2035 20.145 22.466 18.0217C22.3645 17.7293 22.2609 17.435 22.2359 17.3675C22.1997 17.2698 21.9106 17.5254 20.8122 18.6265Z"
        fill="#00F8B9" />
</svg>
    