<svg width="20" height="20" viewBox="0 0 20 20" fill="none" xmlns="http://www.w3.org/2000/svg">
    <path fill-rule="evenodd" clip-rule="evenodd"
        d="M13.9245 0.105737C13.6377 0.298938 13.5969 0.410557 13.4567 1.38308L13.35 2.12244C13.3365 2.21636 13.2638 2.29073 13.1701 2.30633C12.8452 2.36047 12.3523 2.50873 12.0668 2.63811C11.9043 2.71179 11.7616 2.76227 11.7496 2.75031C11.7377 2.73835 11.6508 2.44223 11.5567 2.09224C11.4625 1.74226 11.3478 1.40544 11.3018 1.34372C11.0831 1.05037 10.6305 0.969498 10.3332 1.17064C10.1657 1.284 9.99999 1.57106 10.0001 1.74775C10.0002 1.83246 10.3122 3.0757 10.426 3.44492C10.4417 3.49553 10.3544 3.57395 10.1236 3.71676C9.94518 3.82713 9.68808 3.98873 9.55225 4.0759C9.41361 4.16487 9.22964 4.13039 9.13263 3.99724L8.81577 3.56234C8.39851 2.98966 8.29719 2.87755 8.12994 2.80355C7.65403 2.5929 7.14336 2.92767 7.14336 3.45028C7.14336 3.72002 7.13778 3.70962 7.68515 4.45846L8.00491 4.89595C8.07586 4.99303 8.05754 5.1288 7.9634 5.2036C7.87074 5.27724 7.51058 5.58156 7.16304 5.87991C6.80684 6.18575 6.27499 6.16489 5.94382 5.83211L5.82183 5.70952C5.43167 5.31749 5.05821 4.96795 4.99192 4.93278C4.56275 4.70522 3.97423 5.07381 3.97423 5.57018C3.97423 5.67859 3.99646 5.81118 4.02364 5.86483C4.05083 5.91843 4.40104 6.29367 4.80186 6.69869L5.15165 7.05208C5.36463 7.26727 5.37333 7.61106 5.17149 7.83674C4.97393 8.05766 4.67117 8.41264 4.49874 8.62561C4.32111 8.84494 4.00557 8.89268 3.771 8.73574L3.59987 8.62124C2.85897 8.12558 2.75831 8.07475 2.51795 8.07475C1.95023 8.07475 1.61863 8.72907 1.95148 9.19245C1.99772 9.25686 2.32963 9.505 2.68908 9.74394L2.78411 9.80711C3.09497 10.0138 3.18474 10.4304 2.98658 10.7467C2.79081 11.0593 2.62615 11.3194 2.62075 11.3249C2.6153 11.3303 2.23974 11.2355 1.7861 11.1143C1.33247 10.9931 0.912452 10.8939 0.852685 10.8939C0.675928 10.8939 0.388876 11.0595 0.275502 11.227C0.0745074 11.524 0.155209 11.9768 0.448063 12.195C0.509437 12.2407 0.862014 12.3603 1.2316 12.4607L1.62258 12.5669C1.7689 12.6066 1.84352 12.7692 1.77829 12.906C1.63207 13.213 1.43 13.884 1.43 14.0625C1.43 14.1981 1.42688 14.1991 0.769261 14.2682C0.596565 14.2863 0.433244 14.3346 0.346294 14.3932C-0.108141 14.6994 -0.116578 15.2682 0.328439 15.5982C0.458909 15.6949 0.761717 15.7185 1.2657 15.6711C1.39173 15.6593 1.50935 15.7357 1.54976 15.8556L1.5902 15.9757C1.7179 16.3549 1.86823 16.6622 2.08739 16.9923C2.18168 17.1343 2.17684 17.3201 2.0753 17.457L1.88769 17.7099C1.44942 18.3005 1.43 18.3376 1.43 18.5829C1.43 19.1156 2.07217 19.4734 2.50581 19.1825C2.58923 19.1265 2.805 18.8869 2.98528 18.65L3.1233 18.4687C3.2324 18.3254 3.42991 18.2834 3.58787 18.37C3.99374 18.5924 4.61966 18.7862 5.12257 18.8452L5.24293 18.8593C5.43842 18.8822 5.60032 19.0217 5.65191 19.2117C5.69891 19.3846 5.778 19.5867 5.82768 19.6607C6.13558 20.1196 6.72709 20.1118 7.04186 19.6447C7.16202 19.4665 7.17456 19.2054 7.07641 18.9272C7.03958 18.8228 7.00945 18.7137 7.00945 18.6847C7.00945 18.6556 7.14769 18.5678 7.31663 18.4896C7.48558 18.4113 7.74773 18.2645 7.89913 18.1634C8.05058 18.0623 8.18123 17.9869 8.18944 17.996C8.19765 18.0049 8.31594 18.2354 8.45221 18.508C8.59705 18.7979 8.75734 19.0521 8.83804 19.1199C9.29578 19.5051 10 19.1589 10 18.5488C10 18.4389 9.87747 18.1459 9.59778 17.5872L9.3847 17.1616C9.26647 16.9255 9.2737 16.6459 9.40397 16.4162C9.68397 15.9224 9.79297 15.7576 9.83109 15.7702C9.84863 15.7761 10.0294 16.0096 10.2328 16.2893C10.6741 16.8961 10.7659 16.9726 11.0806 16.995C11.5425 17.028 11.8499 16.7162 11.8194 16.246C11.8039 16.0073 11.7807 15.9664 11.2559 15.248C10.9548 14.836 10.7178 14.4761 10.7292 14.4481C10.7605 14.3713 11.5214 13.4824 11.5558 13.4824C11.5723 13.4824 11.8667 13.7649 12.2101 14.1103C12.5535 14.4556 12.8886 14.7669 12.9549 14.802C13.2567 14.962 13.6952 14.8355 13.8811 14.5348C13.9829 14.3701 14.0044 14.0302 13.9232 13.8699C13.896 13.8163 13.5796 13.4749 13.2201 13.1112L12.7555 12.6409C12.6528 12.537 12.6583 12.3683 12.7674 12.2713C13.0674 12.0047 13.8957 11.3402 13.928 11.3402C13.9435 11.3402 14.2361 11.6237 14.5781 11.9703C14.9202 12.3169 15.2894 12.6583 15.3985 12.729C15.9572 13.0909 16.6186 12.6371 16.4956 11.9761C16.4699 11.8378 16.3524 11.6957 15.8183 11.157L15.5653 10.9017C15.3663 10.701 15.4106 10.3665 15.6548 10.2245C15.9202 10.0701 16.1828 9.90845 16.2384 9.86529C16.3376 9.78813 16.3511 9.79366 17.0418 10.1952C17.7028 10.5795 17.7593 10.6036 17.9977 10.6037C18.3908 10.6038 18.6549 10.362 18.6929 9.96736C18.7312 9.56837 18.6002 9.41261 17.8905 9.0138C17.6262 8.86523 17.3994 8.7267 17.3866 8.70599C17.3737 8.68524 17.4273 8.54234 17.5055 8.38845C17.5837 8.23452 17.6923 7.98107 17.7467 7.82527C17.8012 7.66943 17.8559 7.53183 17.8682 7.51951C17.8805 7.50715 18.2684 7.40879 18.7301 7.30087C19.2135 7.18792 19.6179 7.06889 19.6836 7.02033C20.1207 6.69672 20.1023 6.12658 19.6448 5.81832C19.445 5.68368 19.2733 5.68899 18.5924 5.85073C18.2824 5.92436 18.0134 5.98461 17.9947 5.98461C17.9759 5.98461 17.9364 5.8534 17.9069 5.69305C17.8344 5.29964 17.6163 4.70968 17.4276 4.39638C17.3366 4.24522 17.3598 4.05156 17.484 3.92619L17.8517 3.55489C18.17 3.23342 18.4519 2.91423 18.478 2.84564C18.6904 2.28701 18.2341 1.74529 17.6439 1.85535C17.5066 1.88092 17.3681 1.99384 16.8732 2.48391L16.3842 2.96802C16.3178 3.03382 16.214 3.04337 16.1367 2.99082C15.8967 2.82778 15.3393 2.56072 15.0662 2.4778C14.9189 2.43313 14.7919 2.39238 14.7839 2.38725C14.776 2.38216 14.8242 2.00861 14.891 1.55718C15.0245 0.655439 15.0173 0.48732 14.8359 0.271759C14.5967 -0.0125761 14.2057 -0.083805 13.9245 0.105737ZM13.3816 5.38238C14.0067 5.5297 14.5495 5.93842 14.8128 6.45996C15.0598 6.94924 15.0436 7.22108 14.7504 7.50523C14.6017 7.64934 14.5747 7.65822 14.2855 7.65822C14.0055 7.65822 13.966 7.64644 13.8374 7.52433C13.7598 7.4507 13.6553 7.30404 13.6053 7.19845C13.4832 6.94094 13.2793 6.79455 12.9617 6.73635C12.6867 6.68601 12.7013 6.68284 12.0184 6.93978C11.3731 7.18243 10.8195 6.38557 11.2517 5.83618C11.3598 5.69876 11.8002 5.4761 12.1425 5.38582C12.4632 5.3012 13.0308 5.29964 13.3816 5.38238ZM10.4915 8.40577C10.7723 8.59687 10.8241 8.71286 10.8416 9.18964C10.8606 9.7069 10.8022 10.0044 10.5967 10.4367C10.2292 11.2098 9.4275 11.7443 8.64044 11.7408C8.16551 11.7388 7.84034 11.449 7.84034 11.0278C7.84034 10.6271 8.17828 10.3137 8.61031 10.3137C8.83023 10.3137 8.99328 10.2385 9.15803 10.061C9.37911 9.82294 9.43736 9.65205 9.44522 9.21834C9.45276 8.80328 9.50748 8.62454 9.67277 8.47495C9.88537 8.28259 10.2635 8.25064 10.4915 8.40577ZM6.20646 11.7084C6.45195 11.8754 6.53761 12.0271 6.53761 12.2946C6.53761 12.5351 6.52337 12.5669 6.27636 12.8781C6.17861 13.0013 6.1408 13.1036 6.12567 13.2859C6.09527 13.6524 6.20556 13.8925 6.5668 14.2466C6.82537 14.5 6.87269 14.5709 6.89858 14.7437C6.95709 15.1336 6.69995 15.4881 6.30452 15.5628C6.07023 15.6071 5.79166 15.4717 5.47479 15.1595C4.84659 14.5406 4.55601 13.6077 4.75437 12.8462C4.88422 12.3479 5.18368 11.8914 5.51242 11.691C5.7044 11.5739 6.02055 11.5818 6.20646 11.7084Z"
        fill="#00F8B9" />
</svg>
    