<svg width="21" height="22" viewBox="0 0 21 22" fill="none" xmlns="http://www.w3.org/2000/svg">
    <path fill-rule="evenodd" clip-rule="evenodd"
        d="M8.96745 0.0673572C8.58966 0.170687 8.24227 0.37838 7.99313 0.649879C7.2754 1.43204 7.32772 2.65336 8.11772 3.56085L8.12323 3.56718C8.25448 3.71791 8.26046 3.94053 8.13748 4.09808C7.87338 4.43644 7.63162 4.85351 7.47733 5.23703C7.35874 5.53182 7.22781 6.09458 7.22781 6.30964C7.22781 6.41249 7.23899 6.42085 7.34114 6.39419C7.81055 6.27175 8.46366 6.23162 10.313 6.2116C12.4414 6.18861 13.4739 6.24036 14.0995 6.40143C14.1479 6.41389 14.1939 6.37448 14.189 6.3248L14.171 6.1419C14.1162 5.5859 13.873 4.96342 13.4775 4.36721C13.3668 4.20025 13.2214 4.00909 13.1545 3.9424C13.0854 3.87358 13.0797 3.76358 13.1414 3.68802L13.2529 3.55134C13.7018 3.00136 13.8656 2.57409 13.8636 1.95833C13.8622 1.51798 13.7739 1.1974 13.5687 0.887365C13.2069 0.340794 12.538 0.00165672 11.8185 2.06658e-05C11.4638 -0.000797361 11.4112 0.0220643 11.4112 0.177145C11.4112 0.45381 11.9063 0.844569 12.4696 1.01274C12.6051 1.05317 12.7204 1.09011 12.7258 1.09484C12.7313 1.09954 12.6427 1.20368 12.5291 1.32622C12.2724 1.6031 12.2478 1.79029 12.4445 1.96974C12.5014 2.02167 12.4853 2.1151 12.4142 2.14488L12.3306 2.17993C12.0913 2.28025 11.8669 2.48682 11.8669 2.60669C11.8669 2.64285 11.9507 2.76564 12.0533 2.87956C12.1558 2.99348 12.2396 3.09815 12.2396 3.11214C12.2396 3.12618 12.1124 3.07232 11.957 2.99241C11.5414 2.77895 11.2063 2.69775 10.7278 2.69452C10.2355 2.6912 9.97682 2.75083 9.51056 2.97519C9.31944 3.06711 9.15633 3.14232 9.14813 3.14232C9.09167 3.14232 9.15803 3.03572 9.29882 2.90036C9.59828 2.61237 9.49138 2.35486 8.99028 2.15716L8.96474 2.14708C8.88761 2.11665 8.86704 2.0171 8.92579 1.95859C9.12249 1.7627 9.07333 1.52047 8.78318 1.25565C8.70228 1.18181 8.63609 1.11344 8.63609 1.10367C8.63609 1.09394 8.72221 1.06341 8.8275 1.03586C9.11922 0.95948 9.51134 0.761518 9.68531 0.602735C9.93528 0.374591 10.0415 0.0835456 9.89601 0.0255087C9.7768 -0.022023 9.19908 0.00398164 8.96745 0.0673572ZM2.95806 2.81795C2.45364 2.95056 1.89149 3.29202 1.63821 3.61966C1.19249 4.19616 1.14166 4.96467 1.50053 5.70219C1.74917 6.21328 2.18764 6.76502 2.78778 7.32205C2.92712 7.45137 2.85589 7.68441 2.66807 7.71373L2.415 7.75324C1.64508 7.87345 1.64094 7.88511 2.34024 7.96442C3.01998 8.04149 4.65653 8.37722 4.7313 8.45493C4.7383 8.46221 4.68793 8.59284 4.6193 8.7452C4.49272 9.02648 4.35619 9.53908 4.30782 9.91507C4.29315 10.0289 4.25919 10.1281 4.23231 10.1355C4.20543 10.1429 4.07508 10.17 3.94266 10.1959C3.29886 10.3214 2.68021 10.8199 2.35138 11.4782C2.05721 12.0671 1.98812 12.3457 1.98966 12.9371C1.99123 13.5387 2.01998 13.6569 2.40407 14.6415C2.72652 15.4682 2.79598 15.7398 2.79549 16.1724C2.79511 16.4676 2.77958 16.5387 2.67317 16.7315C2.3747 17.2725 1.63427 17.6641 0.352071 17.9592C0.311138 17.9687 0.319077 18.0291 0.361055 18.0277L0.642012 18.0179C2.44491 17.9549 3.73655 17.5486 4.06824 16.9398C4.25132 16.6039 4.19818 16.2237 3.7706 14.81C3.50882 13.9444 3.44541 13.5905 3.46691 13.1151C3.48596 12.6932 3.55778 12.4895 3.76931 12.2577C3.89159 12.1236 4.13733 11.9531 4.27253 11.9086C4.35392 11.8817 4.36423 11.899 4.39149 12.1068C4.44069 12.4817 4.64357 13.2915 4.82437 13.8345C5.12967 14.7517 5.55175 15.6451 6.04792 16.4245C6.15346 16.5903 6.26815 16.8324 6.30286 16.9627C6.40682 17.3533 6.42037 18.0201 6.33674 18.6357C6.26637 19.1538 6.26628 19.1923 6.33475 19.4364C6.37435 19.5775 6.45007 19.7819 6.50308 19.8906C6.60361 20.0968 7.09908 20.814 7.12293 20.7879C7.13051 20.7797 7.11796 20.6609 7.09506 20.524C7.05447 20.2813 7.07791 19.9734 7.13648 19.9794C7.15255 19.9811 7.25279 20.0948 7.35924 20.2321C7.5897 20.5294 8.10778 20.9712 8.59588 21.2868C8.93602 21.5067 9.83691 22 9.89837 22C9.91482 22 9.75402 21.8613 9.54104 21.6918C9.00391 21.2643 8.3674 20.5863 8.08011 20.1356C7.73338 19.5916 7.59119 19.1918 7.56795 18.6956C7.55768 18.4766 7.5629 18.2974 7.57955 18.2974C7.5962 18.2974 7.69627 18.3717 7.80193 18.4625C8.44357 19.0138 9.2458 19.4156 10.0034 19.565C10.1904 19.6018 10.3507 19.632 10.3596 19.632C10.3685 19.632 10.3757 16.7065 10.3757 13.1309V6.76432C10.3757 6.69004 10.3154 6.62989 10.2411 6.63013C9.75945 6.63159 8.21974 6.72804 7.83474 6.78086C7.24405 6.86193 6.62171 7.01981 6.2609 7.18015C6.07843 7.26121 5.87237 7.27171 5.68261 7.20962L5.59818 7.182C5.38959 7.11376 4.97779 6.9898 4.68308 6.90654C3.45667 6.56004 2.86557 6.16726 2.54179 5.48352C2.42125 5.22907 2.40365 5.14972 2.40498 4.86655C2.40605 4.62588 2.43024 4.48673 2.49821 4.33018C2.77664 3.68872 3.3018 3.27609 4.30769 2.90849C4.34082 2.89639 4.34501 2.85123 4.31467 2.83324L4.30769 2.8291C4.18004 2.75346 3.23313 2.74562 2.95806 2.81795ZM17.1096 2.81244C17.0553 2.82947 17.0525 2.90527 17.1054 2.92623L17.296 3.00171C18.0224 3.28957 18.5958 3.75916 18.8152 4.24597C18.9113 4.45935 18.929 4.55531 18.929 4.86448C18.929 5.1811 18.9127 5.26527 18.8081 5.48877C18.5235 6.09717 17.8381 6.57885 16.8787 6.84471C16.6167 6.91734 16.1858 7.04633 15.9211 7.13141L15.7741 7.17864C15.558 7.24812 15.3244 7.24034 15.1134 7.15664C14.3318 6.84665 13.4555 6.7137 11.7737 6.64981C11.3722 6.63455 11.0385 6.95587 11.0385 7.3576V13.1269C11.0385 16.7047 11.0457 19.632 11.0546 19.632C11.0635 19.632 11.2193 19.6028 11.4009 19.5669C12.1397 19.4212 12.8877 19.0551 13.562 18.5089C13.7953 18.32 13.9885 18.1919 14.0031 18.2165C14.0174 18.2405 14.0384 18.3702 14.0497 18.5048C14.0906 18.9911 13.8574 19.6657 13.4439 20.2572C13.164 20.6574 12.511 21.336 12.0656 21.6894C11.8674 21.8467 11.7125 21.9831 11.7216 21.9925C11.7526 22.0248 12.7999 21.4336 13.213 21.1506C13.4739 20.9719 13.785 20.7027 14.0536 20.4231C14.3686 20.0952 14.4864 19.9967 14.5045 20.0459C14.5181 20.0825 14.5188 20.2691 14.5062 20.4604L14.4938 20.649C14.4906 20.6977 14.552 20.7213 14.5822 20.6831C14.7777 20.4356 15.0613 19.9752 15.1691 19.7305C15.3158 19.3976 15.3312 19.1193 15.2408 18.4402C15.1536 17.7859 15.1827 17.3945 15.3686 16.719C15.4783 16.3201 15.5064 16.2553 15.916 15.4558C16.3739 14.5619 16.812 13.31 16.9632 12.4635C16.9929 12.2978 17.0303 12.1461 17.0464 12.1265C17.0991 12.0623 17.3719 12.4049 17.4576 12.6429C17.5599 12.9269 17.5686 13.4423 17.4787 13.8843C17.445 14.0501 17.3156 14.5252 17.1912 14.9402C16.8104 16.21 16.7575 16.5891 16.9161 16.9106C17.2271 17.541 18.523 17.956 20.3787 18.0196L20.5312 18.0248C20.5855 18.0266 20.5956 17.9485 20.5427 17.9364C19.9479 17.8006 19.5035 17.6435 19.1071 17.4291C18.7036 17.211 18.4615 16.9904 18.312 16.705C18.2143 16.5183 18.195 16.4305 18.1953 16.1731C18.1958 15.7706 18.2779 15.4569 18.5959 14.6415C18.98 13.6569 19.0088 13.5387 19.0103 12.9371C19.0115 12.5094 18.9952 12.3694 18.9161 12.1237C18.6142 11.1862 18.0854 10.5548 17.3776 10.2865C17.2301 10.2306 17.1266 10.0965 17.11 9.9396L17.109 9.93018C17.0604 9.47071 16.8369 8.70211 16.7027 8.53303C16.6763 8.4998 16.6737 8.46212 16.6961 8.43948C16.7628 8.37227 18.0397 8.09845 18.7219 8.00511C19.7677 7.86195 19.7538 7.87655 18.9593 7.75526C18.5659 7.6952 18.2491 7.63402 18.2552 7.61934C18.2613 7.60462 18.4171 7.45509 18.6014 7.28705C19.3911 6.56701 19.8994 5.79824 20.0498 5.09642C20.1804 4.48703 20.0212 3.94575 19.5766 3.48787C19.2968 3.19971 18.8645 2.95594 18.4274 2.83974C18.063 2.74287 17.3768 2.72866 17.1096 2.81244Z"
        fill="#00F8B9" />
</svg>
    